<svg width="724.965" height="361.752" viewBox="0 0 191.814 95.714" xmlns="http://www.w3.org/2000/svg"><defs><path id="a" d="M14.054 433.291h730.822v206.7H14.054z"/></defs><path style="fill:#fff;fill-opacity:1;fill-rule:evenodd;stroke-width:.302452" d="M40.305 0C17.976 0 0 19.074 0 42.767v10.18C0 76.64 17.976 95.714 40.305 95.714h111.204c22.329 0 40.305-19.074 40.305-42.767v-10.18C191.814 19.074 173.838 0 151.509 0Zm1.962 6.17H152.04c17.333 0 31.288 14.808 31.288 33.2 0 18.394-13.955 33.2-31.288 33.2H42.267c-17.334 0-31.288-14.806-31.288-33.2 0-18.392 13.954-33.2 31.288-33.2z"/><rect style="fill:#fff;fill-opacity:1;stroke-width:.224795" width="15.632" height="83.247" x="86.629" y="4.295" ry="0" transform="matrix(1 -.00379 -.16143 .98688 0 0)"/><g aria-label="❯▁" style="font-size:8.93931px;line-height:1.25;stroke-width:.223483"><path d="m128.764 164.952 12.515-19.07-12.515-19.071h8.418l12.292 19.07-12.292 19.07zM154.52 165.324v-5.94h30.078v5.94z" style="font-style:italic;font-weight:700;font-size:38.1412px;-inkscape-font-specification:'sans-serif, Bold Italic';fill:#fff" transform="matrix(.97863 0 0 1.02184 -15.318 -105.968)"/></g><g style="font-size:40px;line-height:1.25;white-space:pre;shape-inside:url(#a)"><path d="m39.186 472.976-25.653 123.76h27.04l9.36-44.373h33.626q9.707 0 18.374-2.947 8.666-2.947 15.253-8.493 6.76-5.547 10.573-13.52 3.987-8.147 3.987-18.374 0-10.226-3.293-17.16-3.12-6.933-8.84-11.093t-13.694-5.893q-7.8-1.907-17.16-1.907zm15.253 58.24 7.627-37.093h23.227q3.64 0 6.933.693 3.467.693 6.24 2.427 2.773 1.56 4.333 4.68 1.734 2.946 1.734 7.626 0 11.094-6.067 16.467-5.893 5.2-16.293 5.2z" style="font-style:italic;font-weight:700;font-size:173.333px;font-family:'Helvetica Neue';-inkscape-font-specification:'Helvetica Neue, Bold Italic';fill:#fff" aria-label="P" transform="matrix(.34605 0 0 .31985 22.229 -131.797)"/></g></svg>
