<?xml version="1.0" encoding="UTF-8" standalone="no"?>
<svg
   width="191.81354mm"
   height="95.713531mm"
   viewBox="0 0 191.81354 95.713531"
   version="1.1"
   id="svg19"
   sodipodi:docname="cpanel-cli-inkscape.svg"
   inkscape:version="1.1.1 (3bf5ae0d25, 2021-09-20)"
   xmlns:inkscape="http://www.inkscape.org/namespaces/inkscape"
   xmlns:sodipodi="http://sodipodi.sourceforge.net/DTD/sodipodi-0.dtd"
   xmlns="http://www.w3.org/2000/svg"
   xmlns:svg="http://www.w3.org/2000/svg">
  <sodipodi:namedview
     id="namedview21"
     pagecolor="#ffffff"
     bordercolor="#666666"
     borderopacity="1.0"
     inkscape:pageshadow="2"
     inkscape:pageopacity="0.0"
     inkscape:pagecheckerboard="0"
     inkscape:document-units="mm"
     showgrid="false"
     inkscape:zoom="1.5554293"
     inkscape:cx="138.2255"
     inkscape:cy="160.72733"
     inkscape:window-width="3840"
     inkscape:window-height="2090"
     inkscape:window-x="0"
     inkscape:window-y="0"
     inkscape:window-maximized="1"
     inkscape:current-layer="svg19" />
  <defs
     id="defs5">
    <rect
       x="14.053596"
       y="433.29074"
       width="730.82214"
       height="206.70036"
       id="rect8854" />
    <path
       id="c"
       d="m -194.528,794.586 h 501.03 v 505.412 h -501.03 z" />
    <path
       id="b"
       d="m 239.715,479.332 h 1.879 v 110.344 h -1.879 z" />
    <path
       id="a"
       d="M 244.868,440.004 H 591.15 v 146.46 H 244.868 Z" />
  </defs>
  <path
     id="path32574"
     style="fill:#cc6600;fill-opacity:1;fill-rule:evenodd;stroke-width:0.302452"
     d="M 40.304808,0 C 17.976161,0 0,19.07398 0,42.7669 V 52.94664 C 0,76.63955 17.976161,95.71353 40.304808,95.71353 H 151.50922 c 22.32864,0 40.30432,-19.07398 40.30432,-42.76689 V 42.7669 C 191.81354,19.07398 173.83786,0 151.50922,0 Z m 1.962157,6.17068 H 152.03957 c 17.33372,0 31.28833,14.80724 31.28833,33.20004 0,18.3928 -13.95461,33.20004 -31.28833,33.20004 H 42.266965 c -17.333719,0 -31.288338,-14.80724 -31.288338,-33.20004 0,-18.3928 13.954619,-33.20004 31.288338,-33.20004 z" />
  <rect
     style="fill:#cc6600;fill-opacity:1;stroke-width:0.224795"
     width="15.631782"
     height="83.246864"
     x="86.628792"
     y="4.2950845"
     ry="0"
     transform="matrix(0.99999283,-0.00378644,-0.16143221,0.9868838,0,0)"
     id="rect32571" />
  <g
     aria-label="❯▁"
     transform="matrix(0.97863,0,0,1.02184,-15.318464,-105.96821)"
     id="text17"
     style="font-size:8.93931px;line-height:1.25;stroke-width:0.223483">
    <path
       d="m 128.76419,164.95183 12.51509,-19.0706 -12.51509,-19.0706 h 8.41789 l 12.2916,19.0706 -12.2916,19.0706 z"
       style="font-style:italic;font-weight:700;font-size:38.1412px;-inkscape-font-specification:'sans-serif, Bold Italic';fill:#cc6600"
       id="path32568" />
    <path
       d="m 154.52068,165.3243 v -5.94094 h 30.07717 v 5.94094 z"
       style="font-style:italic;font-weight:700;font-size:38.1412px;-inkscape-font-specification:'sans-serif, Bold Italic';fill:#cc6600"
       id="path32565" />
  </g>
  <g
     aria-label="P"
     transform="matrix(0.3460528,0,0,0.31985174,22.228628,-131.79721)"
     id="text8852"
     style="font-size:40px;line-height:1.25;white-space:pre;shape-inside:url(#rect8854)">
    <path
       d="M 39.186018,472.97613 13.532735,596.73588 h 27.039947 l 9.359982,-44.37324 h 33.6266 q 9.706648,0 18.373296,-2.94666 8.66665,-2.94666 15.2533,-8.49332 6.75999,-5.54665 10.57332,-13.51997 3.98666,-8.14665 3.98666,-18.3733 0,-10.22665 -3.29333,-17.15997 -3.11999,-6.93332 -8.83998,-11.09331 -5.71999,-4.15999 -13.69331,-5.89332 -7.799984,-1.90666 -17.159966,-1.90666 z m 15.253304,58.23988 7.626651,-37.09326 h 23.226621 q 3.639993,0 6.93332,0.69333 3.46666,0.69334 6.239988,2.42667 2.773328,1.55999 4.333328,4.67999 1.73333,2.94666 1.73333,7.62665 0,11.09331 -6.066658,16.46663 -5.893322,5.19999 -16.293302,5.19999 z"
       style="font-style:italic;font-weight:bold;font-size:173.333px;font-family:'Helvetica Neue';-inkscape-font-specification:'Helvetica Neue, Bold Italic';fill:#cc6600"
       id="path32562" />
  </g>
</svg>
